<svg width="40" height="40" viewBox="0 0 40 40" fill="none" xmlns="http://www.w3.org/2000/svg">
<circle cx="30" cy="10" r="10" fill="url(#paint0_linear)"/>
<path d="M28.3333 14.1665V17.4998" stroke="#5F41D9" stroke-width="2" stroke-linecap="round" stroke-linejoin="round"/>
<g filter="url(#filter0_b)">
<path fill-rule="evenodd" clip-rule="evenodd" d="M23.7698 28.8892L24.623 35.7146Z" fill="url(#paint1_linear)"/>
<path d="M23.7698 28.8892L24.623 35.7146" stroke="url(#paint2_radial)" stroke-width="1.5" stroke-linecap="round"/>
</g>
<g filter="url(#filter1_b)">
<path fill-rule="evenodd" clip-rule="evenodd" d="M16.9443 28.8892L16.0911 35.7146Z" fill="url(#paint3_linear)"/>
<path d="M16.9443 28.8892L16.0911 35.7146" stroke="url(#paint4_radial)" stroke-width="1.5" stroke-linecap="round"/>
</g>
<g filter="url(#filter2_b)">
<path fill-rule="evenodd" clip-rule="evenodd" d="M31.3273 28.8889H9.38702C6.96401 28.8889 5 26.9249 5 24.5019V9.38702C5 6.96401 6.96401 5 9.38702 5H31.3256C33.7503 5 35.7143 6.96401 35.7143 9.38702V24.5002C35.7143 26.9249 33.7503 28.8889 31.3273 28.8889Z" fill="url(#paint5_linear)"/>
<path fill-rule="evenodd" clip-rule="evenodd" d="M31.3273 28.8889H9.38702C6.96401 28.8889 5 26.9249 5 24.5019V9.38702C5 6.96401 6.96401 5 9.38702 5H31.3256C33.7503 5 35.7143 6.96401 35.7143 9.38702V24.5002C35.7143 26.9249 33.7503 28.8889 31.3273 28.8889Z" stroke="url(#paint6_radial)" stroke-width="1.5" stroke-linecap="round"/>
</g>
<g filter="url(#filter3_b)">
<path fill-rule="evenodd" clip-rule="evenodd" d="M13.7705 35.714H26.9435Z" fill="url(#paint7_linear)"/>
<path d="M13.7705 35.714H26.9435" stroke="url(#paint8_radial)" stroke-width="1.5" stroke-linecap="round"/>
</g>
<path fill-rule="evenodd" clip-rule="evenodd" d="M18.6771 10.9198L14.1621 13.4281C13.2129 13.9554 13.2129 15.32 14.1621 15.8472L18.6771 18.3556C19.7214 18.9355 20.9916 18.9355 22.0367 18.3556L26.5517 15.8472C27.5009 15.32 27.5009 13.9554 26.5517 13.4281L22.0367 10.9198C20.9916 10.3399 19.7221 10.3399 18.6771 10.9198Z" stroke="#5F41D9" stroke-width="1.5"/>
<path d="M15.9629 16.8472V19.7168C15.9629 20.4108 16.3103 21.0579 16.8872 21.4419L18.0624 22.2236C19.4526 23.148 21.2618 23.148 22.6513 22.2236L23.8265 21.4419C24.4042 21.0579 24.7508 20.41 24.7508 19.7168V16.8472" stroke="#5F41D9" stroke-width="1.5"/>
<defs>
<filter id="filter0_b" x="7.01953" y="12.1392" width="34.3533" height="40.3256" filterUnits="userSpaceOnUse" color-interpolation-filters="sRGB">
<feFlood flood-opacity="0" result="BackgroundImageFix"/>
<feGaussianBlur in="BackgroundImage" stdDeviation="8"/>
<feComposite in2="SourceAlpha" operator="in" result="effect1_backgroundBlur"/>
<feBlend mode="normal" in="SourceGraphic" in2="effect1_backgroundBlur" result="shape"/>
</filter>
<filter id="filter1_b" x="-0.65918" y="12.1392" width="34.3533" height="40.3256" filterUnits="userSpaceOnUse" color-interpolation-filters="sRGB">
<feFlood flood-opacity="0" result="BackgroundImageFix"/>
<feGaussianBlur in="BackgroundImage" stdDeviation="8"/>
<feComposite in2="SourceAlpha" operator="in" result="effect1_backgroundBlur"/>
<feBlend mode="normal" in="SourceGraphic" in2="effect1_backgroundBlur" result="shape"/>
</filter>
<filter id="filter2_b" x="-4.75" y="-4.75" width="50.2143" height="43.3889" filterUnits="userSpaceOnUse" color-interpolation-filters="sRGB">
<feFlood flood-opacity="0" result="BackgroundImageFix"/>
<feGaussianBlur in="BackgroundImage" stdDeviation="4.5"/>
<feComposite in2="SourceAlpha" operator="in" result="effect1_backgroundBlur"/>
<feBlend mode="normal" in="SourceGraphic" in2="effect1_backgroundBlur" result="shape"/>
</filter>
<filter id="filter3_b" x="-2.97949" y="18.9639" width="46.673" height="33.5" filterUnits="userSpaceOnUse" color-interpolation-filters="sRGB">
<feFlood flood-opacity="0" result="BackgroundImageFix"/>
<feGaussianBlur in="BackgroundImage" stdDeviation="8"/>
<feComposite in2="SourceAlpha" operator="in" result="effect1_backgroundBlur"/>
<feBlend mode="normal" in="SourceGraphic" in2="effect1_backgroundBlur" result="shape"/>
</filter>
<linearGradient id="paint0_linear" x1="35.8333" y1="-1.25" x2="18.3333" y2="20" gradientUnits="userSpaceOnUse">
<stop stop-color="#41B5D9"/>
<stop offset="1" stop-color="#41B5D9" stop-opacity="0"/>
</linearGradient>
<linearGradient id="paint1_linear" x1="21.6369" y1="22.0638" x2="30.2587" y2="27.5951" gradientUnits="userSpaceOnUse">
<stop stop-color="white" stop-opacity="0.4"/>
<stop offset="1" stop-color="white" stop-opacity="0"/>
</linearGradient>
<radialGradient id="paint2_radial" cx="0" cy="0" r="1" gradientUnits="userSpaceOnUse" gradientTransform="translate(24.1964 32.3019) rotate(90) scale(3.4127 0.663579)">
<stop stop-color="#D0C4EB"/>
<stop offset="1" stop-color="#A089D6" stop-opacity="0.5"/>
</radialGradient>
<linearGradient id="paint3_linear" x1="13.9582" y1="22.0638" x2="22.58" y2="27.5951" gradientUnits="userSpaceOnUse">
<stop stop-color="white" stop-opacity="0.4"/>
<stop offset="1" stop-color="white" stop-opacity="0"/>
</linearGradient>
<radialGradient id="paint4_radial" cx="0" cy="0" r="1" gradientUnits="userSpaceOnUse" gradientTransform="translate(16.5177 32.3019) rotate(90) scale(3.4127 0.663581)">
<stop stop-color="#D0C4EB"/>
<stop offset="1" stop-color="#A089D6" stop-opacity="0.5"/>
</radialGradient>
<linearGradient id="paint5_linear" x1="-25.7143" y1="-18.8889" x2="-7.28385" y2="41.9209" gradientUnits="userSpaceOnUse">
<stop stop-color="white" stop-opacity="0.4"/>
<stop offset="1" stop-color="white" stop-opacity="0"/>
</linearGradient>
<radialGradient id="paint6_radial" cx="0" cy="0" r="1" gradientUnits="userSpaceOnUse" gradientTransform="translate(20.3571 16.9444) rotate(90) scale(11.9444)">
<stop stop-color="#D0C4EB"/>
<stop offset="1" stop-color="#A089D6" stop-opacity="0.5"/>
</radialGradient>
<linearGradient id="paint7_linear" x1="0.597492" y1="33.1545" x2="0.836271" y2="37.885" gradientUnits="userSpaceOnUse">
<stop stop-color="white" stop-opacity="0.4"/>
<stop offset="1" stop-color="white" stop-opacity="0"/>
</linearGradient>
<radialGradient id="paint8_radial" cx="0" cy="0" r="1" gradientUnits="userSpaceOnUse" gradientTransform="translate(20.357 35.714) rotate(90) scale(0.853174 5.12284)">
<stop stop-color="#D0C4EB"/>
<stop offset="1" stop-color="#A089D6" stop-opacity="0.5"/>
</radialGradient>
</defs>
</svg>
