<svg width="40" height="40" viewBox="0 0 40 40" fill="none" xmlns="http://www.w3.org/2000/svg">
<circle cx="30" cy="30" r="10" fill="url(#paint0_linear)"/>
<g filter="url(#filter0_b)">
<path fill-rule="evenodd" clip-rule="evenodd" d="M26.6667 5H8.33333C6.49167 5 5 6.49167 5 8.33333V25" fill="url(#paint1_linear)"/>
<path d="M26.6667 5H8.33333C6.49167 5 5 6.49167 5 8.33333V25" stroke="url(#paint2_radial)" stroke-width="1.5" stroke-linecap="round"/>
</g>
<g filter="url(#filter1_b)">
<path fill-rule="evenodd" clip-rule="evenodd" d="M32.4065 35.0001H14.2598C12.8265 35.0001 11.6665 33.8401 11.6665 32.4067V14.2601C11.6665 12.8267 12.8265 11.6667 14.2598 11.6667H32.4082C33.8398 11.6667 34.9998 12.8267 34.9998 14.2601V32.4084C34.9998 33.8401 33.8398 35.0001 32.4065 35.0001Z" fill="url(#paint3_linear)"/>
<path fill-rule="evenodd" clip-rule="evenodd" d="M32.4065 35.0001H14.2598C12.8265 35.0001 11.6665 33.8401 11.6665 32.4067V14.2601C11.6665 12.8267 12.8265 11.6667 14.2598 11.6667H32.4082C33.8398 11.6667 34.9998 12.8267 34.9998 14.2601V32.4084C34.9998 33.8401 33.8398 35.0001 32.4065 35.0001Z" stroke="url(#paint4_radial)" stroke-width="1.5" stroke-linecap="round"/>
</g>
<g filter="url(#filter2_b)">
<path fill-rule="evenodd" clip-rule="evenodd" d="M29.8165 18.15H22.0332Z" fill="url(#paint5_linear)"/>
<path d="M29.8165 18.15H22.0332" stroke="#5F41D9" stroke-width="1.5" stroke-linecap="round"/>
</g>
<g filter="url(#filter3_b)">
<path fill-rule="evenodd" clip-rule="evenodd" d="M22.0332 23.3333H29.8165Z" fill="url(#paint6_linear)"/>
<path d="M22.0332 23.3333H29.8165" stroke="#5F41D9" stroke-width="1.5" stroke-linecap="round"/>
</g>
<g filter="url(#filter4_b)">
<path fill-rule="evenodd" clip-rule="evenodd" d="M22.0332 28.5167H29.8165Z" fill="url(#paint7_linear)"/>
<path d="M22.0332 28.5167H29.8165" stroke="url(#paint8_radial)" stroke-width="1.5" stroke-linecap="round"/>
</g>
<g filter="url(#filter5_b)">
<path fill-rule="evenodd" clip-rule="evenodd" d="M16.8499 28.1951C16.6716 28.1951 16.5266 28.3401 16.5266 28.5184C16.5266 28.6967 16.6716 28.8417 16.8499 28.8417C17.0283 28.8417 17.1733 28.6967 17.1733 28.5184C17.1733 28.3401 17.0299 28.1951 16.8499 28.1951" fill="url(#paint9_linear)"/>
<path d="M16.8499 28.1951C16.6716 28.1951 16.5266 28.3401 16.5266 28.5184C16.5266 28.6967 16.6716 28.8417 16.8499 28.8417C17.0283 28.8417 17.1733 28.6967 17.1733 28.5184C17.1733 28.3401 17.0299 28.1951 16.8499 28.1951" stroke="url(#paint10_radial)" stroke-width="1.5" stroke-linecap="round"/>
</g>
<g filter="url(#filter6_b)">
<path fill-rule="evenodd" clip-rule="evenodd" d="M16.8499 23.01C16.6716 23.01 16.5266 23.155 16.5266 23.3333C16.5266 23.5117 16.6716 23.6567 16.8499 23.6567C17.0283 23.6567 17.1733 23.5117 17.1733 23.3333C17.1733 23.155 17.0299 23.01 16.8499 23.01" fill="url(#paint11_linear)"/>
<path d="M16.8499 23.01C16.6716 23.01 16.5266 23.155 16.5266 23.3333C16.5266 23.5117 16.6716 23.6567 16.8499 23.6567C17.0283 23.6567 17.1733 23.5117 17.1733 23.3333C17.1733 23.155 17.0299 23.01 16.8499 23.01" stroke="#5F41D9" stroke-width="1.5" stroke-linecap="round"/>
</g>
<g filter="url(#filter7_b)">
<path fill-rule="evenodd" clip-rule="evenodd" d="M16.8499 17.8232C16.6716 17.8232 16.5266 17.9682 16.5266 18.1466C16.5266 18.3249 16.6716 18.4699 16.8499 18.4699C17.0282 18.4699 17.1732 18.3249 17.1732 18.1466C17.1766 17.9699 17.0299 17.8232 16.8499 17.8232" fill="url(#paint12_linear)"/>
<path d="M16.8499 17.8232C16.6716 17.8232 16.5266 17.9682 16.5266 18.1466C16.5266 18.3249 16.6716 18.4699 16.8499 18.4699C17.0282 18.4699 17.1732 18.3249 17.1732 18.1466C17.1766 17.9699 17.0299 17.8232 16.8499 17.8232" stroke="#5F41D9" stroke-width="1.5" stroke-linecap="round"/>
</g>
<defs>
<filter id="filter0_b" x="-4.75" y="-4.75" width="41.1667" height="39.5" filterUnits="userSpaceOnUse" color-interpolation-filters="sRGB">
<feFlood flood-opacity="0" result="BackgroundImageFix"/>
<feGaussianBlur in="BackgroundImage" stdDeviation="4.5"/>
<feComposite in2="SourceAlpha" operator="in" result="effect1_backgroundBlur"/>
<feBlend mode="normal" in="SourceGraphic" in2="effect1_backgroundBlur" result="shape"/>
</filter>
<filter id="filter1_b" x="1.9165" y="1.91675" width="42.8333" height="42.8333" filterUnits="userSpaceOnUse" color-interpolation-filters="sRGB">
<feFlood flood-opacity="0" result="BackgroundImageFix"/>
<feGaussianBlur in="BackgroundImage" stdDeviation="4.5"/>
<feComposite in2="SourceAlpha" operator="in" result="effect1_backgroundBlur"/>
<feBlend mode="normal" in="SourceGraphic" in2="effect1_backgroundBlur" result="shape"/>
</filter>
<filter id="filter2_b" x="12.2832" y="8.3999" width="27.2833" height="19.5" filterUnits="userSpaceOnUse" color-interpolation-filters="sRGB">
<feFlood flood-opacity="0" result="BackgroundImageFix"/>
<feGaussianBlur in="BackgroundImage" stdDeviation="4.5"/>
<feComposite in2="SourceAlpha" operator="in" result="effect1_backgroundBlur"/>
<feBlend mode="normal" in="SourceGraphic" in2="effect1_backgroundBlur" result="shape"/>
</filter>
<filter id="filter3_b" x="12.2832" y="13.5833" width="27.2833" height="19.5" filterUnits="userSpaceOnUse" color-interpolation-filters="sRGB">
<feFlood flood-opacity="0" result="BackgroundImageFix"/>
<feGaussianBlur in="BackgroundImage" stdDeviation="4.5"/>
<feComposite in2="SourceAlpha" operator="in" result="effect1_backgroundBlur"/>
<feBlend mode="normal" in="SourceGraphic" in2="effect1_backgroundBlur" result="shape"/>
</filter>
<filter id="filter4_b" x="12.2832" y="18.7666" width="27.2833" height="19.5" filterUnits="userSpaceOnUse" color-interpolation-filters="sRGB">
<feFlood flood-opacity="0" result="BackgroundImageFix"/>
<feGaussianBlur in="BackgroundImage" stdDeviation="4.5"/>
<feComposite in2="SourceAlpha" operator="in" result="effect1_backgroundBlur"/>
<feBlend mode="normal" in="SourceGraphic" in2="effect1_backgroundBlur" result="shape"/>
</filter>
<filter id="filter5_b" x="6.77637" y="18.4451" width="20.1467" height="20.1467" filterUnits="userSpaceOnUse" color-interpolation-filters="sRGB">
<feFlood flood-opacity="0" result="BackgroundImageFix"/>
<feGaussianBlur in="BackgroundImage" stdDeviation="4.5"/>
<feComposite in2="SourceAlpha" operator="in" result="effect1_backgroundBlur"/>
<feBlend mode="normal" in="SourceGraphic" in2="effect1_backgroundBlur" result="shape"/>
</filter>
<filter id="filter6_b" x="6.77637" y="13.26" width="20.1467" height="20.1467" filterUnits="userSpaceOnUse" color-interpolation-filters="sRGB">
<feFlood flood-opacity="0" result="BackgroundImageFix"/>
<feGaussianBlur in="BackgroundImage" stdDeviation="4.5"/>
<feComposite in2="SourceAlpha" operator="in" result="effect1_backgroundBlur"/>
<feBlend mode="normal" in="SourceGraphic" in2="effect1_backgroundBlur" result="shape"/>
</filter>
<filter id="filter7_b" x="6.77637" y="8.07324" width="20.1467" height="20.1467" filterUnits="userSpaceOnUse" color-interpolation-filters="sRGB">
<feFlood flood-opacity="0" result="BackgroundImageFix"/>
<feGaussianBlur in="BackgroundImage" stdDeviation="4.5"/>
<feComposite in2="SourceAlpha" operator="in" result="effect1_backgroundBlur"/>
<feBlend mode="normal" in="SourceGraphic" in2="effect1_backgroundBlur" result="shape"/>
</filter>
<linearGradient id="paint0_linear" x1="14.5" y1="30" x2="36.5" y2="50" gradientUnits="userSpaceOnUse">
<stop stop-color="#41B5D9" stop-opacity="0"/>
<stop offset="1" stop-color="#41B5D9"/>
</linearGradient>
<linearGradient id="paint1_linear" x1="-16.6667" y1="-15" x2="1.03753" y2="34.2189" gradientUnits="userSpaceOnUse">
<stop stop-color="white" stop-opacity="0.4"/>
<stop offset="1" stop-color="white" stop-opacity="0"/>
</linearGradient>
<radialGradient id="paint2_radial" cx="0" cy="0" r="1" gradientUnits="userSpaceOnUse" gradientTransform="translate(15.8333 15) rotate(90) scale(10 8.42593)">
<stop stop-color="#D0C4EB"/>
<stop offset="1" stop-color="#A089D6" stop-opacity="0.5"/>
</radialGradient>
<linearGradient id="paint3_linear" x1="-11.6668" y1="-11.6666" x2="10.2729" y2="44.6356" gradientUnits="userSpaceOnUse">
<stop stop-color="white" stop-opacity="0.4"/>
<stop offset="1" stop-color="white" stop-opacity="0"/>
</linearGradient>
<radialGradient id="paint4_radial" cx="0" cy="0" r="1" gradientUnits="userSpaceOnUse" gradientTransform="translate(23.3332 23.3334) rotate(90) scale(11.6667 9.07407)">
<stop stop-color="#D0C4EB"/>
<stop offset="1" stop-color="#A089D6" stop-opacity="0.5"/>
</radialGradient>
<linearGradient id="paint5_linear" x1="14.2499" y1="15.65" x2="14.6337" y2="20.2502" gradientUnits="userSpaceOnUse">
<stop stop-color="white" stop-opacity="0.4"/>
<stop offset="1" stop-color="white" stop-opacity="0"/>
</linearGradient>
<linearGradient id="paint6_linear" x1="14.2499" y1="20.8333" x2="14.6337" y2="25.4336" gradientUnits="userSpaceOnUse">
<stop stop-color="white" stop-opacity="0.4"/>
<stop offset="1" stop-color="white" stop-opacity="0"/>
</linearGradient>
<linearGradient id="paint7_linear" x1="14.2499" y1="26.0167" x2="14.6337" y2="30.6169" gradientUnits="userSpaceOnUse">
<stop stop-color="white" stop-opacity="0.4"/>
<stop offset="1" stop-color="white" stop-opacity="0"/>
</linearGradient>
<radialGradient id="paint8_radial" cx="0" cy="0" r="1" gradientUnits="userSpaceOnUse" gradientTransform="translate(25.9249 28.5167) rotate(90) scale(0.833334 3.02685)">
<stop stop-color="#D0C4EB"/>
<stop offset="1" stop-color="#A089D6" stop-opacity="0.5"/>
</radialGradient>
<linearGradient id="paint9_linear" x1="14.3499" y1="26.0184" x2="15.9171" y2="30.04" gradientUnits="userSpaceOnUse">
<stop stop-color="white" stop-opacity="0.4"/>
<stop offset="1" stop-color="white" stop-opacity="0"/>
</linearGradient>
<radialGradient id="paint10_radial" cx="0" cy="0" r="1" gradientUnits="userSpaceOnUse" gradientTransform="translate(16.8499 28.5184) rotate(90) scale(0.833332 0.648148)">
<stop stop-color="#D0C4EB"/>
<stop offset="1" stop-color="#A089D6" stop-opacity="0.5"/>
</radialGradient>
<linearGradient id="paint11_linear" x1="14.3499" y1="20.8333" x2="15.9171" y2="24.8549" gradientUnits="userSpaceOnUse">
<stop stop-color="white" stop-opacity="0.4"/>
<stop offset="1" stop-color="white" stop-opacity="0"/>
</linearGradient>
<linearGradient id="paint12_linear" x1="14.3499" y1="15.6466" x2="15.9171" y2="19.6682" gradientUnits="userSpaceOnUse">
<stop stop-color="white" stop-opacity="0.4"/>
<stop offset="1" stop-color="white" stop-opacity="0"/>
</linearGradient>
</defs>
</svg>
