<svg width="40" height="40" viewBox="0 0 40 40" fill="none" xmlns="http://www.w3.org/2000/svg">
<circle cx="10" cy="10" r="10" fill="url(#paint0_linear)"/>
<g filter="url(#filter0_b)">
<path fill-rule="evenodd" clip-rule="evenodd" d="M10.21 23L5.88428 27.4281C5.43304 27.89 5.53139 28.6522 6.08511 28.9844L8.95229 30.7047C9.09304 30.7892 9.21084 30.907 9.29529 31.0477L10.9908 33.8735C11.3307 34.4401 12.1169 34.5271 12.5725 34.0486L18.165 28.175" fill="url(#paint1_linear)"/>
<path d="M10.21 23L5.88428 27.4281C5.43304 27.89 5.53139 28.6522 6.08511 28.9844L8.95229 30.7047C9.09304 30.7892 9.21084 30.907 9.29529 31.0477L10.9908 33.8735C11.3307 34.4401 12.1169 34.5271 12.5725 34.0486L18.165 28.175" stroke="url(#paint2_radial)" stroke-width="1.5" stroke-linecap="round"/>
</g>
<g filter="url(#filter1_b)">
<path fill-rule="evenodd" clip-rule="evenodd" d="M21.835 28.175L27.4274 34.0486C27.8831 34.5271 28.6692 34.4401 29.0092 33.8735L30.7047 31.0477C30.7891 30.907 30.9069 30.7892 31.0477 30.7047L33.9148 28.9844C34.4686 28.6522 34.5669 27.89 34.1157 27.4281L29.79 23" fill="url(#paint3_linear)"/>
<path d="M21.835 28.175L27.4274 34.0486C27.8831 34.5271 28.6692 34.4401 29.0092 33.8735L30.7047 31.0477C30.7891 30.907 30.9069 30.7892 31.0477 30.7047L33.9148 28.9844C34.4686 28.6522 34.5669 27.89 34.1157 27.4281L29.79 23" stroke="url(#paint4_radial)" stroke-width="1.5" stroke-linecap="round"/>
</g>
<g filter="url(#filter2_b)">
<path fill-rule="evenodd" clip-rule="evenodd" d="M28.2497 8.41709C32.8058 12.9732 32.8058 20.3601 28.2497 24.9162C23.6936 29.4724 16.3067 29.4724 11.7506 24.9162C7.19447 20.3601 7.19447 12.9732 11.7506 8.41709C16.3067 3.86097 23.6936 3.86097 28.2497 8.41709" fill="url(#paint5_linear)"/>
<path d="M28.2497 8.41709C32.8058 12.9732 32.8058 20.3601 28.2497 24.9162C23.6936 29.4724 16.3067 29.4724 11.7506 24.9162C7.19447 20.3601 7.19447 12.9732 11.7506 8.41709C16.3067 3.86097 23.6936 3.86097 28.2497 8.41709" stroke="url(#paint6_radial)" stroke-width="1.5" stroke-linecap="round"/>
</g>
<path fill-rule="evenodd" clip-rule="evenodd" d="M19.9984 20.6481C19.9984 20.6477 19.9989 20.6474 19.9992 20.6476L22.7414 22.0578C23.2756 22.3327 23.9 21.8889 23.7977 21.3061L23.3664 18.8431C23.3087 18.5138 23.4194 18.1775 23.6614 17.9468L25.4935 16.2001C25.9255 15.7877 25.6874 15.0689 25.0906 14.9838L22.5412 14.621C22.2171 14.5749 21.9362 14.3732 21.789 14.0809L20.6532 11.8263C20.3861 11.2958 19.6153 11.2958 19.3481 11.8263L18.2123 14.0811C18.0651 14.3733 17.7844 14.575 17.4605 14.6212L14.9093 14.9853C14.3125 15.0704 14.0743 15.7892 14.5063 16.2016L16.3385 17.9483C16.5804 18.179 16.6911 18.5153 16.6335 18.8446L16.2022 21.3076C16.0999 21.8904 16.7242 22.3342 17.2585 22.0593L19.9993 20.6498C19.9998 20.6495 19.9996 20.6486 19.999 20.6486V20.6486C19.9987 20.6486 19.9984 20.6484 19.9984 20.6481V20.6481Z" stroke="#5F41D9" stroke-width="1.5" stroke-linecap="round"/>
<defs>
<filter id="filter0_b" x="-11.1504" y="6.25" width="46.0655" height="44.8592" filterUnits="userSpaceOnUse" color-interpolation-filters="sRGB">
<feFlood flood-opacity="0" result="BackgroundImageFix"/>
<feGaussianBlur in="BackgroundImage" stdDeviation="8"/>
<feComposite in2="SourceAlpha" operator="in" result="effect1_backgroundBlur"/>
<feBlend mode="normal" in="SourceGraphic" in2="effect1_backgroundBlur" result="shape"/>
</filter>
<filter id="filter1_b" x="5.08496" y="6.25" width="46.0655" height="44.8592" filterUnits="userSpaceOnUse" color-interpolation-filters="sRGB">
<feFlood flood-opacity="0" result="BackgroundImageFix"/>
<feGaussianBlur in="BackgroundImage" stdDeviation="8"/>
<feComposite in2="SourceAlpha" operator="in" result="effect1_backgroundBlur"/>
<feBlend mode="normal" in="SourceGraphic" in2="effect1_backgroundBlur" result="shape"/>
</filter>
<filter id="filter2_b" x="-1.4165" y="-4.75" width="42.8333" height="42.8333" filterUnits="userSpaceOnUse" color-interpolation-filters="sRGB">
<feFlood flood-opacity="0" result="BackgroundImageFix"/>
<feGaussianBlur in="BackgroundImage" stdDeviation="4.5"/>
<feComposite in2="SourceAlpha" operator="in" result="effect1_backgroundBlur"/>
<feBlend mode="normal" in="SourceGraphic" in2="effect1_backgroundBlur" result="shape"/>
</filter>
<linearGradient id="paint0_linear" x1="10" y1="0" x2="10" y2="20" gradientUnits="userSpaceOnUse">
<stop stop-color="#F5CE67"/>
<stop offset="1" stop-color="#F5CE67" stop-opacity="0"/>
</linearGradient>
<linearGradient id="paint1_linear" x1="-8.165" y1="11" x2="2.3544" y2="40.6158" gradientUnits="userSpaceOnUse">
<stop stop-color="white" stop-opacity="0.4"/>
<stop offset="1" stop-color="white" stop-opacity="0"/>
</linearGradient>
<radialGradient id="paint2_radial" cx="0" cy="0" r="1" gradientUnits="userSpaceOnUse" gradientTransform="translate(11.5825 29) rotate(90) scale(6 5.11972)">
<stop stop-color="#D0C4EB"/>
<stop offset="1" stop-color="#A089D6" stop-opacity="0.5"/>
</radialGradient>
<linearGradient id="paint3_linear" x1="8.66996" y1="11" x2="19.1894" y2="40.6158" gradientUnits="userSpaceOnUse">
<stop stop-color="white" stop-opacity="0.4"/>
<stop offset="1" stop-color="white" stop-opacity="0"/>
</linearGradient>
<radialGradient id="paint4_radial" cx="0" cy="0" r="1" gradientUnits="userSpaceOnUse" gradientTransform="translate(28.4175 29) rotate(90) scale(6 5.11972)">
<stop stop-color="#D0C4EB"/>
<stop offset="1" stop-color="#A089D6" stop-opacity="0.5"/>
</radialGradient>
<linearGradient id="paint5_linear" x1="-14.9998" y1="-18.3333" x2="6.93993" y2="37.9689" gradientUnits="userSpaceOnUse">
<stop stop-color="white" stop-opacity="0.4"/>
<stop offset="1" stop-color="white" stop-opacity="0"/>
</linearGradient>
<radialGradient id="paint6_radial" cx="0" cy="0" r="1" gradientUnits="userSpaceOnUse" gradientTransform="translate(20.0002 16.6667) rotate(90) scale(11.6667 9.07407)">
<stop stop-color="#D0C4EB"/>
<stop offset="1" stop-color="#A089D6" stop-opacity="0.5"/>
</radialGradient>
</defs>
</svg>
