<svg width="1396" height="176" viewBox="0 0 1396 176" fill="none" xmlns="http://www.w3.org/2000/svg">
<circle cx="958.997" cy="54.7389" r="13.4865" transform="rotate(20.0728 958.997 54.7389)" fill="url(#paint0_linear)" fill-opacity="0.8"/>
<g filter="url(#filter0_b)">
<path fill-rule="evenodd" clip-rule="evenodd" d="M963.421 49.1669L984.541 56.8847C989.207 58.5897 991.608 63.7543 989.903 68.4202L982.185 89.5412C980.48 94.2071 975.315 96.6074 970.649 94.9024L949.529 87.1846C944.863 85.4797 942.462 80.3151 944.167 75.6492L951.885 54.5282C953.59 49.8623 958.755 47.462 963.421 49.1669Z" fill="url(#paint1_linear)" fill-opacity="0.8"/>
<path fill-rule="evenodd" clip-rule="evenodd" d="M963.421 49.1669L984.541 56.8847C989.207 58.5897 991.608 63.7543 989.903 68.4202L982.185 89.5412C980.48 94.2071 975.315 96.6074 970.649 94.9024L949.529 87.1846C944.863 85.4797 942.462 80.3151 944.167 75.6492L951.885 54.5282C953.59 49.8623 958.755 47.462 963.421 49.1669Z" stroke="url(#paint2_radial)" stroke-opacity="0.8" stroke-width="1.5" stroke-linecap="round"/>
</g>
<path d="M980.479 74.5536L978.936 78.7778" stroke="white" stroke-opacity="0.8" stroke-width="1.5" stroke-linecap="round" stroke-linejoin="round"/>
<g filter="url(#filter1_b)">
<path fill-rule="evenodd" clip-rule="evenodd" d="M975.687 68.0141L971.056 80.6866Z" fill="url(#paint3_linear)" fill-opacity="0.8"/>
<path d="M975.687 68.0141L971.056 80.6866" stroke="url(#paint4_radial)" stroke-opacity="0.8" stroke-width="1.5" stroke-linecap="round"/>
</g>
<path d="M953.591 69.5163L955.134 65.2921" stroke="white" stroke-opacity="0.8" stroke-width="1.5" stroke-linecap="round" stroke-linejoin="round"/>
<g filter="url(#filter2_b)">
<path fill-rule="evenodd" clip-rule="evenodd" d="M958.383 76.0558L963.014 63.3832Z" fill="url(#paint5_linear)" fill-opacity="0.8"/>
<path d="M958.383 76.0558L963.014 63.3832" stroke="url(#paint6_radial)" stroke-opacity="0.8" stroke-width="1.5" stroke-linecap="round"/>
</g>
<path d="M970.894 61.4745L963.176 82.5955" stroke="white" stroke-opacity="0.8" stroke-width="1.5" stroke-linecap="round" stroke-linejoin="round"/>
<circle cx="33.2661" cy="89.2199" r="20.6241" transform="rotate(15 33.2661 89.2199)" fill="url(#paint7_linear)" fill-opacity="0.8"/>
<g filter="url(#filter3_b)">
<path fill-rule="evenodd" clip-rule="evenodd" d="M36.8247 75.9389L76.6674 86.6147Z" fill="url(#paint8_linear)" fill-opacity="0.8"/>
<path d="M36.8247 75.9389L76.6674 86.6147" stroke="url(#paint9_radial)" stroke-opacity="0.8" stroke-width="1.5" stroke-linecap="round"/>
</g>
<g filter="url(#filter4_b)">
<path fill-rule="evenodd" clip-rule="evenodd" d="M46.1338 67.7578L72.6956 74.875Z" fill="url(#paint10_linear)" fill-opacity="0.8"/>
<path d="M46.1338 67.7578L72.6956 74.875" stroke="url(#paint11_radial)" stroke-opacity="0.8" stroke-width="1.5" stroke-linecap="round"/>
</g>
<g filter="url(#filter5_b)">
<path fill-rule="evenodd" clip-rule="evenodd" d="M67.6522 144.696L15.5911 130.746C11.63 129.685 9.27968 125.614 10.341 121.653L18.9529 89.513C20.0142 85.552 24.0852 83.2016 28.0462 84.263L80.1073 98.2127C84.0684 99.274 86.4187 103.345 85.3574 107.306L76.7455 139.446C75.6842 143.407 71.6132 145.757 67.6522 144.696Z" fill="url(#paint12_linear)" fill-opacity="0.8"/>
<path fill-rule="evenodd" clip-rule="evenodd" d="M67.6522 144.696L15.5911 130.746C11.63 129.685 9.27968 125.614 10.341 121.653L18.9529 89.513C20.0142 85.552 24.0852 83.2016 28.0462 84.263L80.1073 98.2127C84.0684 99.274 86.4187 103.345 85.3574 107.306L76.7455 139.446C75.6842 143.407 71.6132 145.757 67.6522 144.696Z" stroke="url(#paint13_radial)" stroke-opacity="0.8" stroke-width="1.5" stroke-linecap="round"/>
</g>
<path fill-rule="evenodd" clip-rule="evenodd" d="M46.2143 103.741L57.0608 114.818C58.433 116.218 57.8004 118.578 55.9122 119.105L40.9805 123.274C39.057 123.812 37.2798 122.051 37.7967 120.122L41.8811 104.879C42.398 102.95 44.8175 102.314 46.2143 103.741V103.741Z" stroke="white" stroke-opacity="0.8" stroke-width="1.5" stroke-linecap="round" stroke-linejoin="round"/>
<ellipse cx="1326.72" cy="87.7019" rx="20.9063" ry="20.9063" transform="rotate(15 1326.72 87.7019)" fill="url(#paint14_linear)" fill-opacity="0.8"/>
<g filter="url(#filter6_b)">
<path fill-rule="evenodd" clip-rule="evenodd" d="M1330.33 74.2392L1370.72 85.0611Z" fill="url(#paint15_linear)" fill-opacity="0.8"/>
<path d="M1330.33 74.2392L1370.72 85.0611" stroke="url(#paint16_radial)" stroke-opacity="0.8" stroke-width="1.5" stroke-linecap="round"/>
</g>
<g filter="url(#filter7_b)">
<path fill-rule="evenodd" clip-rule="evenodd" d="M1339.76 65.946L1366.69 73.1606Z" fill="url(#paint17_linear)" fill-opacity="0.8"/>
<path d="M1339.76 65.946L1366.69 73.1606" stroke="url(#paint18_radial)" stroke-opacity="0.8" stroke-width="1.5" stroke-linecap="round"/>
</g>
<g filter="url(#filter8_b)">
<path fill-rule="evenodd" clip-rule="evenodd" d="M1361.58 143.937L1308.8 129.796C1304.79 128.72 1302.41 124.594 1303.48 120.578L1312.21 87.9988C1313.29 83.9836 1317.41 81.6011 1321.43 82.677L1374.2 96.8176C1378.22 97.8935 1380.6 102.02 1379.53 106.035L1370.8 138.615C1369.72 142.63 1365.59 145.013 1361.58 143.937Z" fill="url(#paint19_linear)" fill-opacity="0.8"/>
<path fill-rule="evenodd" clip-rule="evenodd" d="M1361.58 143.937L1308.8 129.796C1304.79 128.72 1302.41 124.594 1303.48 120.578L1312.21 87.9988C1313.29 83.9836 1317.41 81.6011 1321.43 82.677L1374.2 96.8176C1378.22 97.8935 1380.6 102.02 1379.53 106.035L1370.8 138.615C1369.72 142.63 1365.59 145.013 1361.58 143.937Z" stroke="url(#paint20_radial)" stroke-opacity="0.8" stroke-width="1.5" stroke-linecap="round"/>
</g>
<path fill-rule="evenodd" clip-rule="evenodd" d="M1339.85 102.422L1350.84 113.65C1352.23 115.069 1351.59 117.462 1349.68 117.995L1334.54 122.222C1332.59 122.767 1330.79 120.983 1331.31 119.027L1335.45 103.575C1335.98 101.62 1338.43 100.975 1339.85 102.422V102.422Z" stroke="white" stroke-opacity="0.8" stroke-width="1.5" stroke-linecap="round" stroke-linejoin="round"/>
<circle cx="303.5" cy="20.25" r="13.5" fill="url(#paint21_linear)"/>
<g filter="url(#filter9_b)">
<path fill-rule="evenodd" clip-rule="evenodd" d="M303.5 11.25H330.5Z" fill="url(#paint22_linear)"/>
<path d="M303.5 11.25H330.5" stroke="url(#paint23_radial)" stroke-width="1.5" stroke-linecap="round"/>
</g>
<g filter="url(#filter10_b)">
<path fill-rule="evenodd" clip-rule="evenodd" d="M308 4.5H326Z" fill="url(#paint24_linear)"/>
<path d="M308 4.5H326" stroke="url(#paint25_radial)" stroke-width="1.5" stroke-linecap="round"/>
</g>
<g filter="url(#filter11_b)">
<path fill-rule="evenodd" clip-rule="evenodd" d="M334.64 49.5003H299.36C296.676 49.5003 294.5 47.3245 294.5 44.6403V22.8602C294.5 20.176 296.676 18.0002 299.36 18.0002H334.64C337.324 18.0002 339.5 20.176 339.5 22.8602V44.6403C339.5 47.3245 337.324 49.5003 334.64 49.5003Z" fill="url(#paint26_linear)"/>
<path fill-rule="evenodd" clip-rule="evenodd" d="M334.64 49.5003H299.36C296.676 49.5003 294.5 47.3245 294.5 44.6403V22.8602C294.5 20.176 296.676 18.0002 299.36 18.0002H334.64C337.324 18.0002 339.5 20.176 339.5 22.8602V44.6403C339.5 47.3245 337.324 49.5003 334.64 49.5003Z" stroke="url(#paint27_radial)" stroke-width="1.5" stroke-linecap="round"/>
</g>
<path fill-rule="evenodd" clip-rule="evenodd" d="M314.147 27.2378L322.882 32.4038C323.986 33.0563 323.986 34.656 322.882 35.3085L314.147 40.4745C313.022 41.1405 311.6 40.3283 311.6 39.021V28.6913C311.6 27.384 313.022 26.5718 314.147 27.2378V27.2378Z" stroke="white" stroke-width="1.5" stroke-linecap="round" stroke-linejoin="round"/>
<ellipse cx="598.438" cy="148.002" rx="16.8388" ry="16.8388" transform="rotate(-21.0468 598.438 148.002)" fill="url(#paint28_linear)" fill-opacity="0.8"/>
<g filter="url(#filter12_b)">
<path fill-rule="evenodd" clip-rule="evenodd" d="M632.677 144.821L640.535 141.797C643.429 140.684 644.871 137.437 643.757 134.543L630.655 100.493C629.541 97.5989 626.295 96.1567 623.401 97.2704L581.493 113.397C578.599 114.51 577.156 117.757 578.27 120.651L591.373 154.701C592.486 157.595 595.733 159.037 598.627 157.924L622.2 148.853" fill="url(#paint29_linear)" fill-opacity="0.8"/>
<path d="M632.677 144.821L640.535 141.797C643.429 140.684 644.871 137.437 643.757 134.543L630.655 100.493C629.541 97.5989 626.295 96.1567 623.401 97.2704L581.493 113.397C578.599 114.51 577.156 117.757 578.27 120.651L591.373 154.701C592.486 157.595 595.733 159.037 598.627 157.924L622.2 148.853" stroke="url(#paint30_radial)" stroke-opacity="0.8" stroke-width="1.5" stroke-linecap="round"/>
</g>
<g filter="url(#filter13_b)">
<path fill-rule="evenodd" clip-rule="evenodd" d="M598.117 117.524L613.832 111.477Z" fill="url(#paint31_linear)" fill-opacity="0.8"/>
<path d="M598.117 117.524L613.832 111.477" stroke="url(#paint32_radial)" stroke-opacity="0.8" stroke-width="1.5" stroke-linecap="round"/>
</g>
<g filter="url(#filter14_b)">
<path fill-rule="evenodd" clip-rule="evenodd" d="M625.217 117.621L593.786 129.715Z" fill="url(#paint33_linear)" fill-opacity="0.8"/>
<path d="M625.217 117.621L593.786 129.715" stroke="url(#paint34_radial)" stroke-opacity="0.8" stroke-width="1.5" stroke-linecap="round"/>
</g>
<g filter="url(#filter15_b)">
<path fill-rule="evenodd" clip-rule="evenodd" d="M599.33 144.121L607.187 141.097Z" fill="url(#paint35_linear)" fill-opacity="0.8"/>
<path d="M599.33 144.121L607.187 141.097" stroke="url(#paint36_radial)" stroke-opacity="0.8" stroke-width="1.5" stroke-linecap="round"/>
</g>
<path d="M626.825 128.665C631.074 130.553 632.989 135.528 631.101 139.778C629.213 144.027 624.238 145.942 619.989 144.054C615.739 142.166 613.825 137.191 615.712 132.941C617.6 128.692 622.575 126.778 626.825 128.665" stroke="white" stroke-opacity="0.8" stroke-width="1.5" stroke-linecap="round" stroke-linejoin="round"/>
<path d="M630.884 140.161L635.7 152.678L629.454 152.075L625.223 156.71L620.407 144.193" stroke="white" stroke-opacity="0.8" stroke-width="1.5" stroke-linecap="round" stroke-linejoin="round"/>
<defs>
<filter id="filter0_b" x="931.118" y="36.1179" width="71.8334" height="71.8334" filterUnits="userSpaceOnUse" color-interpolation-filters="sRGB">
<feFlood flood-opacity="0" result="BackgroundImageFix"/>
<feGaussianBlur in="BackgroundImage" stdDeviation="4.5"/>
<feComposite in2="SourceAlpha" operator="in" result="effect1_backgroundBlur"/>
<feBlend mode="normal" in="SourceGraphic" in2="effect1_backgroundBlur" result="shape"/>
</filter>
<filter id="filter1_b" x="961.094" y="58.0522" width="24.5544" height="32.5963" filterUnits="userSpaceOnUse" color-interpolation-filters="sRGB">
<feFlood flood-opacity="0" result="BackgroundImageFix"/>
<feGaussianBlur in="BackgroundImage" stdDeviation="4.5"/>
<feComposite in2="SourceAlpha" operator="in" result="effect1_backgroundBlur"/>
<feBlend mode="normal" in="SourceGraphic" in2="effect1_backgroundBlur" result="shape"/>
</filter>
<filter id="filter2_b" x="948.421" y="53.4214" width="24.5544" height="32.5963" filterUnits="userSpaceOnUse" color-interpolation-filters="sRGB">
<feFlood flood-opacity="0" result="BackgroundImageFix"/>
<feGaussianBlur in="BackgroundImage" stdDeviation="4.5"/>
<feComposite in2="SourceAlpha" operator="in" result="effect1_backgroundBlur"/>
<feBlend mode="normal" in="SourceGraphic" in2="effect1_backgroundBlur" result="shape"/>
</filter>
<filter id="filter3_b" x="26.9062" y="66.0203" width="59.6798" height="30.5129" filterUnits="userSpaceOnUse" color-interpolation-filters="sRGB">
<feFlood flood-opacity="0" result="BackgroundImageFix"/>
<feGaussianBlur in="BackgroundImage" stdDeviation="4.5"/>
<feComposite in2="SourceAlpha" operator="in" result="effect1_backgroundBlur"/>
<feBlend mode="normal" in="SourceGraphic" in2="effect1_backgroundBlur" result="shape"/>
</filter>
<filter id="filter4_b" x="36.2153" y="57.8391" width="46.3989" height="26.9543" filterUnits="userSpaceOnUse" color-interpolation-filters="sRGB">
<feFlood flood-opacity="0" result="BackgroundImageFix"/>
<feGaussianBlur in="BackgroundImage" stdDeviation="4.5"/>
<feComposite in2="SourceAlpha" operator="in" result="effect1_backgroundBlur"/>
<feBlend mode="normal" in="SourceGraphic" in2="effect1_backgroundBlur" result="shape"/>
</filter>
<filter id="filter5_b" x="-1.49902" y="72.4229" width="98.6967" height="84.1133" filterUnits="userSpaceOnUse" color-interpolation-filters="sRGB">
<feFlood flood-opacity="0" result="BackgroundImageFix"/>
<feGaussianBlur in="BackgroundImage" stdDeviation="4.5"/>
<feComposite in2="SourceAlpha" operator="in" result="effect1_backgroundBlur"/>
<feBlend mode="normal" in="SourceGraphic" in2="effect1_backgroundBlur" result="shape"/>
</filter>
<filter id="filter6_b" x="1320.41" y="64.3206" width="60.2251" height="30.659" filterUnits="userSpaceOnUse" color-interpolation-filters="sRGB">
<feFlood flood-opacity="0" result="BackgroundImageFix"/>
<feGaussianBlur in="BackgroundImage" stdDeviation="4.5"/>
<feComposite in2="SourceAlpha" operator="in" result="effect1_backgroundBlur"/>
<feBlend mode="normal" in="SourceGraphic" in2="effect1_backgroundBlur" result="shape"/>
</filter>
<filter id="filter7_b" x="1329.85" y="56.0273" width="46.7624" height="27.0517" filterUnits="userSpaceOnUse" color-interpolation-filters="sRGB">
<feFlood flood-opacity="0" result="BackgroundImageFix"/>
<feGaussianBlur in="BackgroundImage" stdDeviation="4.5"/>
<feComposite in2="SourceAlpha" operator="in" result="effect1_backgroundBlur"/>
<feBlend mode="normal" in="SourceGraphic" in2="effect1_backgroundBlur" result="shape"/>
</filter>
<filter id="filter8_b" x="1291.62" y="70.8105" width="99.776" height="84.993" filterUnits="userSpaceOnUse" color-interpolation-filters="sRGB">
<feFlood flood-opacity="0" result="BackgroundImageFix"/>
<feGaussianBlur in="BackgroundImage" stdDeviation="4.5"/>
<feComposite in2="SourceAlpha" operator="in" result="effect1_backgroundBlur"/>
<feBlend mode="normal" in="SourceGraphic" in2="effect1_backgroundBlur" result="shape"/>
</filter>
<filter id="filter9_b" x="293.75" y="1.5" width="46.5" height="19.5" filterUnits="userSpaceOnUse" color-interpolation-filters="sRGB">
<feFlood flood-opacity="0" result="BackgroundImageFix"/>
<feGaussianBlur in="BackgroundImage" stdDeviation="4.5"/>
<feComposite in2="SourceAlpha" operator="in" result="effect1_backgroundBlur"/>
<feBlend mode="normal" in="SourceGraphic" in2="effect1_backgroundBlur" result="shape"/>
</filter>
<filter id="filter10_b" x="298.25" y="-5.25" width="37.5" height="19.5" filterUnits="userSpaceOnUse" color-interpolation-filters="sRGB">
<feFlood flood-opacity="0" result="BackgroundImageFix"/>
<feGaussianBlur in="BackgroundImage" stdDeviation="4.5"/>
<feComposite in2="SourceAlpha" operator="in" result="effect1_backgroundBlur"/>
<feBlend mode="normal" in="SourceGraphic" in2="effect1_backgroundBlur" result="shape"/>
</filter>
<filter id="filter11_b" x="284.75" y="8.25024" width="64.5" height="51" filterUnits="userSpaceOnUse" color-interpolation-filters="sRGB">
<feFlood flood-opacity="0" result="BackgroundImageFix"/>
<feGaussianBlur in="BackgroundImage" stdDeviation="4.5"/>
<feComposite in2="SourceAlpha" operator="in" result="effect1_backgroundBlur"/>
<feBlend mode="normal" in="SourceGraphic" in2="effect1_backgroundBlur" result="shape"/>
</filter>
<filter id="filter12_b" x="566.285" y="85.2854" width="89.4573" height="84.6233" filterUnits="userSpaceOnUse" color-interpolation-filters="sRGB">
<feFlood flood-opacity="0" result="BackgroundImageFix"/>
<feGaussianBlur in="BackgroundImage" stdDeviation="4.5"/>
<feComposite in2="SourceAlpha" operator="in" result="effect1_backgroundBlur"/>
<feBlend mode="normal" in="SourceGraphic" in2="effect1_backgroundBlur" result="shape"/>
</filter>
<filter id="filter13_b" x="588.147" y="101.508" width="35.654" height="25.9859" filterUnits="userSpaceOnUse" color-interpolation-filters="sRGB">
<feFlood flood-opacity="0" result="BackgroundImageFix"/>
<feGaussianBlur in="BackgroundImage" stdDeviation="4.5"/>
<feComposite in2="SourceAlpha" operator="in" result="effect1_backgroundBlur"/>
<feBlend mode="normal" in="SourceGraphic" in2="effect1_backgroundBlur" result="shape"/>
</filter>
<filter id="filter14_b" x="583.817" y="107.651" width="51.3694" height="32.0332" filterUnits="userSpaceOnUse" color-interpolation-filters="sRGB">
<feFlood flood-opacity="0" result="BackgroundImageFix"/>
<feGaussianBlur in="BackgroundImage" stdDeviation="4.5"/>
<feComposite in2="SourceAlpha" operator="in" result="effect1_backgroundBlur"/>
<feBlend mode="normal" in="SourceGraphic" in2="effect1_backgroundBlur" result="shape"/>
</filter>
<filter id="filter15_b" x="589.36" y="131.128" width="27.7963" height="22.9623" filterUnits="userSpaceOnUse" color-interpolation-filters="sRGB">
<feFlood flood-opacity="0" result="BackgroundImageFix"/>
<feGaussianBlur in="BackgroundImage" stdDeviation="4.5"/>
<feComposite in2="SourceAlpha" operator="in" result="effect1_backgroundBlur"/>
<feBlend mode="normal" in="SourceGraphic" in2="effect1_backgroundBlur" result="shape"/>
</filter>
<linearGradient id="paint0_linear" x1="965.74" y1="43.5002" x2="936.519" y2="41.2524" gradientUnits="userSpaceOnUse">
<stop stop-color="#41B5D9" stop-opacity="0"/>
<stop offset="1" stop-color="#41B5D9"/>
</linearGradient>
<linearGradient id="paint1_linear" x1="930.846" y1="-5.82988" x2="933.073" y2="98.9673" gradientUnits="userSpaceOnUse">
<stop stop-color="white" stop-opacity="0.4"/>
<stop offset="1" stop-color="white" stop-opacity="0"/>
</linearGradient>
<radialGradient id="paint2_radial" cx="0" cy="0" r="1" gradientUnits="userSpaceOnUse" gradientTransform="translate(967.035 72.0347) rotate(110.073) scale(20.2382 15.7408)">
<stop stop-color="white"/>
<stop offset="1" stop-color="white" stop-opacity="0.5"/>
</radialGradient>
<linearGradient id="paint3_linear" x1="977.149" y1="54.1838" x2="987.894" y2="64.284" gradientUnits="userSpaceOnUse">
<stop stop-color="white" stop-opacity="0.4"/>
<stop offset="1" stop-color="white" stop-opacity="0"/>
</linearGradient>
<radialGradient id="paint4_radial" cx="0" cy="0" r="1" gradientUnits="userSpaceOnUse" gradientTransform="translate(973.372 74.3503) rotate(110.073) scale(6.74605 0.87449)">
<stop stop-color="white"/>
<stop offset="1" stop-color="white" stop-opacity="0.5"/>
</radialGradient>
<linearGradient id="paint5_linear" x1="964.477" y1="49.553" x2="975.221" y2="59.6531" gradientUnits="userSpaceOnUse">
<stop stop-color="white" stop-opacity="0.4"/>
<stop offset="1" stop-color="white" stop-opacity="0"/>
</linearGradient>
<radialGradient id="paint6_radial" cx="0" cy="0" r="1" gradientUnits="userSpaceOnUse" gradientTransform="translate(960.699 69.7195) rotate(110.073) scale(6.74606 0.874488)">
<stop stop-color="white"/>
<stop offset="1" stop-color="white" stop-opacity="0.5"/>
</radialGradient>
<linearGradient id="paint7_linear" x1="53.8902" y1="105.719" x2="7.48594" y2="68.5959" gradientUnits="userSpaceOnUse">
<stop stop-color="#41B5D9" stop-opacity="0"/>
<stop offset="1" stop-color="#41B5D9"/>
</linearGradient>
<linearGradient id="paint8_linear" x1="-1.68351" y1="60.2828" x2="-3.85421" y2="69.5813" gradientUnits="userSpaceOnUse">
<stop stop-color="white" stop-opacity="0.4"/>
<stop offset="1" stop-color="white" stop-opacity="0"/>
</linearGradient>
<radialGradient id="paint9_radial" cx="0" cy="0" r="1" gradientUnits="userSpaceOnUse" gradientTransform="translate(56.7461 81.2768) rotate(105) scale(1.71867 16.041)">
<stop stop-color="white"/>
<stop offset="1" stop-color="white" stop-opacity="0.5"/>
</radialGradient>
<linearGradient id="paint10_linear" x1="20.9065" y1="55.6602" x2="18.8881" y2="64.9866" gradientUnits="userSpaceOnUse">
<stop stop-color="white" stop-opacity="0.4"/>
<stop offset="1" stop-color="white" stop-opacity="0"/>
</linearGradient>
<radialGradient id="paint11_radial" cx="0" cy="0" r="1" gradientUnits="userSpaceOnUse" gradientTransform="translate(59.4147 71.3164) rotate(105) scale(1.71868 10.694)">
<stop stop-color="white"/>
<stop offset="1" stop-color="white" stop-opacity="0.5"/>
</radialGradient>
<linearGradient id="paint12_linear" x1="-33.0749" y1="18.0651" x2="-32.4946" y2="147.1" gradientUnits="userSpaceOnUse">
<stop stop-color="white" stop-opacity="0.4"/>
<stop offset="1" stop-color="white" stop-opacity="0"/>
</linearGradient>
<radialGradient id="paint13_radial" cx="0" cy="0" r="1" gradientUnits="userSpaceOnUse" gradientTransform="translate(47.8492 114.479) rotate(105) scale(24.0615 26.7349)">
<stop stop-color="white"/>
<stop offset="1" stop-color="white" stop-opacity="0.5"/>
</radialGradient>
<linearGradient id="paint14_linear" x1="1347.63" y1="104.427" x2="1300.59" y2="66.7955" gradientUnits="userSpaceOnUse">
<stop stop-color="#41B5D9" stop-opacity="0"/>
<stop offset="1" stop-color="#41B5D9"/>
</linearGradient>
<linearGradient id="paint15_linear" x1="1291.29" y1="58.3688" x2="1289.09" y2="67.7946" gradientUnits="userSpaceOnUse">
<stop stop-color="white" stop-opacity="0.4"/>
<stop offset="1" stop-color="white" stop-opacity="0"/>
</linearGradient>
<radialGradient id="paint16_radial" cx="0" cy="0" r="1" gradientUnits="userSpaceOnUse" gradientTransform="translate(1350.52 79.6502) rotate(105) scale(1.7422 16.2605)">
<stop stop-color="white"/>
<stop offset="1" stop-color="white" stop-opacity="0.5"/>
</radialGradient>
<linearGradient id="paint17_linear" x1="1314.19" y1="53.6829" x2="1312.15" y2="63.1369" gradientUnits="userSpaceOnUse">
<stop stop-color="white" stop-opacity="0.4"/>
<stop offset="1" stop-color="white" stop-opacity="0"/>
</linearGradient>
<radialGradient id="paint18_radial" cx="0" cy="0" r="1" gradientUnits="userSpaceOnUse" gradientTransform="translate(1353.23 69.5533) rotate(105) scale(1.7422 10.8403)">
<stop stop-color="white"/>
<stop offset="1" stop-color="white" stop-opacity="0.5"/>
</radialGradient>
<linearGradient id="paint19_linear" x1="1259.47" y1="15.5732" x2="1260.06" y2="146.374" gradientUnits="userSpaceOnUse">
<stop stop-color="white" stop-opacity="0.4"/>
<stop offset="1" stop-color="white" stop-opacity="0"/>
</linearGradient>
<radialGradient id="paint20_radial" cx="0" cy="0" r="1" gradientUnits="userSpaceOnUse" gradientTransform="translate(1341.5 113.307) rotate(105) scale(24.3907 27.1008)">
<stop stop-color="white"/>
<stop offset="1" stop-color="white" stop-opacity="0.5"/>
</radialGradient>
<linearGradient id="paint21_linear" x1="317" y1="31.05" x2="286.625" y2="6.75" gradientUnits="userSpaceOnUse">
<stop stop-color="#41B5D9" stop-opacity="0"/>
<stop offset="1" stop-color="#41B5D9"/>
</linearGradient>
<linearGradient id="paint22_linear" x1="276.5" y1="7.875" x2="276.703" y2="14.122" gradientUnits="userSpaceOnUse">
<stop stop-color="white" stop-opacity="0.4"/>
<stop offset="1" stop-color="white" stop-opacity="0"/>
</linearGradient>
<radialGradient id="paint23_radial" cx="0" cy="0" r="1" gradientUnits="userSpaceOnUse" gradientTransform="translate(317 11.25) rotate(90) scale(1.125 10.5)">
<stop stop-color="white"/>
<stop offset="1" stop-color="white" stop-opacity="0.5"/>
</radialGradient>
<linearGradient id="paint24_linear" x1="290" y1="1.125" x2="290.304" y2="7.36375" gradientUnits="userSpaceOnUse">
<stop stop-color="white" stop-opacity="0.4"/>
<stop offset="1" stop-color="white" stop-opacity="0"/>
</linearGradient>
<radialGradient id="paint25_radial" cx="0" cy="0" r="1" gradientUnits="userSpaceOnUse" gradientTransform="translate(317 4.5) rotate(90) scale(1.125 7)">
<stop stop-color="white"/>
<stop offset="1" stop-color="white" stop-opacity="0.5"/>
</radialGradient>
<linearGradient id="paint26_linear" x1="249.5" y1="-13.4998" x2="271.728" y2="67.9869" gradientUnits="userSpaceOnUse">
<stop stop-color="white" stop-opacity="0.4"/>
<stop offset="1" stop-color="white" stop-opacity="0"/>
</linearGradient>
<radialGradient id="paint27_radial" cx="0" cy="0" r="1" gradientUnits="userSpaceOnUse" gradientTransform="translate(317 33.7502) rotate(90) scale(15.75 17.5)">
<stop stop-color="white"/>
<stop offset="1" stop-color="white" stop-opacity="0.5"/>
</radialGradient>
<linearGradient id="paint28_linear" x1="615.277" y1="156.421" x2="566.445" y2="175.786" gradientUnits="userSpaceOnUse">
<stop stop-color="#41B5D9" stop-opacity="0"/>
<stop offset="1" stop-color="#41B5D9"/>
</linearGradient>
<linearGradient id="paint29_linear" x1="506.736" y1="91.0431" x2="586.588" y2="188.35" gradientUnits="userSpaceOnUse">
<stop stop-color="white" stop-opacity="0.4"/>
<stop offset="1" stop-color="white" stop-opacity="0"/>
</linearGradient>
<radialGradient id="paint30_radial" cx="0" cy="0" r="1" gradientUnits="userSpaceOnUse" gradientTransform="translate(611.014 127.597) rotate(68.9532) scale(23.8549 21.828)">
<stop stop-color="white"/>
<stop offset="1" stop-color="white" stop-opacity="0.5"/>
</radialGradient>
<linearGradient id="paint31_linear" x1="580.89" y1="119.643" x2="584.15" y2="126.711" gradientUnits="userSpaceOnUse">
<stop stop-color="white" stop-opacity="0.4"/>
<stop offset="1" stop-color="white" stop-opacity="0"/>
</linearGradient>
<radialGradient id="paint32_radial" cx="0" cy="0" r="1" gradientUnits="userSpaceOnUse" gradientTransform="translate(605.974 114.501) rotate(68.9532) scale(1.40323 6.5484)">
<stop stop-color="white"/>
<stop offset="1" stop-color="white" stop-opacity="0.5"/>
</radialGradient>
<linearGradient id="paint33_linear" x1="560.844" y1="137.881" x2="563.878" y2="145.062" gradientUnits="userSpaceOnUse">
<stop stop-color="white" stop-opacity="0.4"/>
<stop offset="1" stop-color="white" stop-opacity="0"/>
</linearGradient>
<radialGradient id="paint34_radial" cx="0" cy="0" r="1" gradientUnits="userSpaceOnUse" gradientTransform="translate(609.502 123.668) rotate(68.9532) scale(1.40323 13.0968)">
<stop stop-color="white"/>
<stop offset="1" stop-color="white" stop-opacity="0.5"/>
</radialGradient>
<linearGradient id="paint35_linear" x1="589.96" y1="143.216" x2="593.645" y2="150.017" gradientUnits="userSpaceOnUse">
<stop stop-color="white" stop-opacity="0.4"/>
<stop offset="1" stop-color="white" stop-opacity="0"/>
</linearGradient>
<radialGradient id="paint36_radial" cx="0" cy="0" r="1" gradientUnits="userSpaceOnUse" gradientTransform="translate(603.258 142.609) rotate(68.9532) scale(1.40323 3.2742)">
<stop stop-color="white"/>
<stop offset="1" stop-color="white" stop-opacity="0.5"/>
</radialGradient>
</defs>
</svg>
